<svg aria-hidden="true" style="position: absolute; width: 0; height: 0; overflow: hidden;"
    version="1.1" xmlns="http://www.w3.org/2000/svg" xmlns:xlink="http://www.w3.org/1999/xlink">
    <defs>
        <symbol id="icon-arrow-right" viewBox="0 0 32 32">
            <path fill="#603809" style="fill: var(--color1, #603809)"
                d="M16 17.333v9.333l10.667-10.667-10.667-10.667v9.333h-10.667v2.667h10.667z"></path>
        </symbol>
        <symbol id="icon-arrow-left" viewBox="0 0 32 32">
            <path fill="#603809" style="fill: var(--color1, #603809)"
                d="M16 17.333v9.333l-10.667-10.667 10.667-10.667v9.333h10.667v2.667h-10.667z"></path>
        </symbol>
        <symbol id="icon-twitter" viewBox="0 0 32 32">
            <path
                d="M29.549 7.541c-1.018 0.45-2.097 0.746-3.203 0.877 1.165-0.697 2.037-1.793 2.453-3.085-1.093 0.651-2.292 1.107-3.541 1.353-0.839-0.898-1.951-1.493-3.164-1.694s-2.457 0.005-3.541 0.585c-1.084 0.58-1.945 1.502-2.451 2.622s-0.627 2.376-0.345 3.572c-2.217-0.111-4.386-0.687-6.366-1.691s-3.727-2.413-5.127-4.136c-0.496 0.851-0.756 1.819-0.755 2.804 0 1.933 0.984 3.641 2.48 4.641-0.885-0.028-1.751-0.267-2.525-0.697v0.069c0 1.288 0.446 2.535 1.261 3.532s1.95 1.681 3.212 1.936c-0.822 0.223-1.684 0.256-2.52 0.096 0.356 1.108 1.049 2.078 1.983 2.772s2.062 1.080 3.226 1.101c-1.157 0.909-2.481 1.58-3.897 1.976s-2.897 0.509-4.357 0.333c2.549 1.639 5.516 2.509 8.547 2.507 10.257 0 15.867-8.497 15.867-15.867 0-0.24-0.007-0.483-0.017-0.72 1.092-0.789 2.034-1.767 2.783-2.887l-0.001-0.001z"></path>
        </symbol>
        <symbol id="icon-youtube" viewBox="0 0 32 32">
            <path
                d="M28.724 8.664c0.609 2.376 0.609 7.336 0.609 7.336s0 4.96-0.609 7.336c-0.339 1.313-1.329 2.347-2.584 2.696-2.279 0.635-10.14 0.635-10.14 0.635s-7.857 0-10.14-0.635c-1.26-0.355-2.249-1.387-2.584-2.696-0.609-2.376-0.609-7.336-0.609-7.336s0-4.96 0.609-7.336c0.339-1.313 1.329-2.347 2.584-2.696 2.283-0.635 10.14-0.635 10.14-0.635s7.861 0 10.14 0.635c1.26 0.355 2.249 1.387 2.584 2.696zM13.333 20.667l8-4.667-8-4.667v9.333z"></path>
        </symbol>
        <symbol id="icon-instagram" viewBox="0 0 32 32">
            <path
                d="M16 2.667c3.623 0 4.075 0.013 5.496 0.080 1.42 0.067 2.387 0.289 3.237 0.62 0.88 0.339 1.621 0.797 2.363 1.537 0.678 0.667 1.203 1.473 1.537 2.363 0.329 0.849 0.553 1.817 0.62 3.237 0.063 1.421 0.080 1.873 0.080 5.496s-0.013 4.075-0.080 5.496c-0.067 1.42-0.291 2.387-0.62 3.237-0.334 0.89-0.859 1.697-1.537 2.363-0.667 0.678-1.473 1.202-2.363 1.537-0.849 0.329-1.817 0.553-3.237 0.62-1.421 0.063-1.873 0.080-5.496 0.080s-4.075-0.013-5.496-0.080c-1.42-0.067-2.387-0.291-3.237-0.62-0.89-0.334-1.697-0.859-2.363-1.537-0.678-0.666-1.203-1.473-1.537-2.363-0.331-0.849-0.553-1.817-0.62-3.237-0.063-1.421-0.080-1.873-0.080-5.496s0.013-4.075 0.080-5.496c0.067-1.421 0.289-2.387 0.62-3.237 0.334-0.89 0.858-1.697 1.537-2.363 0.666-0.678 1.473-1.203 2.363-1.537 0.851-0.331 1.816-0.553 3.237-0.62 1.421-0.063 1.873-0.080 5.496-0.080zM16 9.333c-1.768 0-3.464 0.702-4.714 1.953s-1.953 2.946-1.953 4.714c0 1.768 0.702 3.464 1.953 4.714s2.946 1.953 4.714 1.953 3.464-0.702 4.714-1.953c1.25-1.25 1.953-2.946 1.953-4.714s-0.702-3.464-1.953-4.714c-1.25-1.25-2.946-1.953-4.714-1.953zM24.667 9c0-0.442-0.176-0.866-0.488-1.178s-0.737-0.488-1.179-0.488c-0.442 0-0.866 0.176-1.179 0.488s-0.488 0.736-0.488 1.178c0 0.442 0.176 0.866 0.488 1.178s0.737 0.488 1.179 0.488c0.442 0 0.866-0.176 1.179-0.488s0.488-0.736 0.488-1.178zM16 12c1.061 0 2.078 0.421 2.828 1.172s1.172 1.768 1.172 2.828c0 1.061-0.421 2.078-1.172 2.828s-1.768 1.172-2.828 1.172c-1.061 0-2.078-0.421-2.828-1.172s-1.172-1.768-1.172-2.828c0-1.061 0.421-2.078 1.172-2.828s1.768-1.172 2.828-1.172z"></path>
        </symbol>
        <symbol id="icon-facebook" viewBox="0 0 32 32">
            <path
                d="M16 2.667c-7.364 0-13.333 5.969-13.333 13.333 0 6.655 4.876 12.171 11.251 13.172v-9.319h-3.387v-3.853h3.387v-2.937c0-3.341 1.989-5.187 5.036-5.187 1.459 0 2.984 0.26 2.984 0.26v3.28h-1.68c-1.657 0-2.173 1.028-2.173 2.083v2.501h3.697l-0.591 3.853h-3.107v9.319c6.373-1 11.249-6.519 11.249-13.172 0-7.364-5.969-13.333-13.333-13.333z"></path>
        </symbol>
    </defs>
</svg>